<svg xmlns="http://www.w3.org/2000/svg" height="48" viewBox="0 96 960 960" width="48"><path d="m402.384 952-17.153-118.461q-19.077-6-43.962-19.693-24.884-13.692-41.192-28.538l-109.693 48.846-77.846-140.616 95.154-71.769q-1-10.077-2.269-23-1.269-12.923-1.269-24 0-9.307 1.269-21.731 1.269-12.423 2.269-25.807l-95.154-71.539 77.846-137.308 106.924 47.308q18.615-14.846 42.461-28.654 23.846-13.807 44.692-20.577L402.384 199h156.232l16.153 118.231q23.154 8.307 44.808 20.961 21.654 12.654 40.038 27.5l111.77-47.308 77.077 137.308-100.231 73.616q2.538 12.846 3.923 25 1.385 12.154 1.385 21.692 0 8.769-1.77 20.808-1.769 12.038-2.538 25.423l97.462 71.307-77.847 140.616-111.231-49.615q-19.384 16.384-40.692 29.423-21.307 13.038-41.154 18.807L558.616 952H402.384Zm74.308-267.615q46.154 0 77.77-31.616 31.615-31.615 31.615-77.769 0-46.154-31.615-77.769-31.616-31.616-77.77-31.616-45.384 0-77.384 31.616-32.001 31.615-32.001 77.769 0 46.154 32.001 77.769 32 31.616 77.384 31.616Z"/></svg>