<svg xmlns="http://www.w3.org/2000/svg" height="48" viewBox="0 96 960 960" width="48"><path d="M783.308 982.077 666.231 866q-24 15.308-50.192 27.308-26.193 12-55.347 19.462V867q19.308-4.692 37.885-12.385 18.577-7.692 36.192-20.846L449.923 648.692v175.386L292.846 666H148.923V486h137.308L78.538 277.307l31.231-32 704.77 705.308-31.231 31.462Zm-21.692-215.462-32.462-32.461q24.923-34.539 37.154-74.769 12.231-40.231 12.231-85.385 0-101.231-60.577-182.423Q657.385 310.384 560.692 283v-45.77q115.154 31.847 188.385 125.347T822.308 574q0 53.769-16.192 102.231-16.193 48.461-44.5 90.384ZM621.692 626.692l-61-61v-129q35.923 23 55.577 59.923 19.654 36.923 19.654 79.385 0 14.385-3.308 27-3.307 12.615-10.923 23.692ZM449.923 454.923l-62.615-64.385 62.615-62.616v127.001Z"/></svg>