<svg xmlns="http://www.w3.org/2000/svg" height="48" viewBox="0 96 960 960" width="48"><path d="M555.077 912.77V867q98-30.308 157.923-111.154T772.923 574q0-100-60.308-180.346Q652.308 313.308 555.077 283v-45.77q114.385 31.847 188 125.347 73.616 93.5 73.616 211.423 0 119.923-73.116 213.923-73.115 94-188.5 124.847ZM143.307 666V486h143.924l157.077-158.078v496.156L287.231 666H143.307Zm402.539 51.693V433.538q40.077 20.308 62.269 58.693 22.193 38.384 22.193 83.769 0 46.154-22.193 83.769-22.192 37.616-62.269 57.924Z"/></svg>